<?xml version="1.0" encoding="UTF-8"?>
<svg xmlns="http://www.w3.org/2000/svg" xmlns:xlink="http://www.w3.org/1999/xlink" viewBox="0 0 28 28" width="28px" height="28px">
<g id="surface162189425">
<path style=" stroke:none;fill-rule:nonzero;fill:rgb(100%,0%,11.764706%);fill-opacity:1;" d="M 27.566406 14 C 27.566406 6.507812 21.492188 0.433594 14 0.433594 C 6.507812 0.433594 0.433594 6.507812 0.433594 14 C 0.433594 21.492188 6.507812 27.566406 14 27.566406 C 21.492188 27.566406 27.566406 21.492188 27.566406 14 Z M 27.566406 14 "/>
<path style=" stroke:none;fill-rule:nonzero;fill:rgb(100%,100%,100%);fill-opacity:1;" d="M 15.585938 14 L 19.550781 9.394531 C 19.984375 8.890625 19.929688 8.136719 19.425781 7.699219 C 18.921875 7.269531 18.167969 7.324219 17.734375 7.824219 L 14 12.164062 L 10.269531 7.832031 C 9.839844 7.328125 9.078125 7.273438 8.574219 7.707031 C 8.070312 8.136719 8.015625 8.898438 8.449219 9.402344 L 12.414062 14 L 8.449219 18.605469 C 8.015625 19.109375 8.070312 19.863281 8.574219 20.300781 C 8.800781 20.496094 9.078125 20.589844 9.355469 20.589844 C 9.695312 20.589844 10.03125 20.449219 10.265625 20.175781 L 13.996094 15.84375 L 17.722656 20.175781 C 17.960938 20.449219 18.296875 20.589844 18.632812 20.589844 C 18.910156 20.589844 19.191406 20.496094 19.414062 20.300781 C 19.917969 19.867188 19.972656 19.109375 19.539062 18.605469 Z M 15.585938 14 "/>
</g>
</svg>
