<?xml version="1.0" encoding="UTF-8"?>
<svg xmlns="http://www.w3.org/2000/svg" xmlns:xlink="http://www.w3.org/1999/xlink" viewBox="0 0 28 28" width="28px" height="28px">
<g id="surface162194493">
<path style=" stroke:none;fill-rule:nonzero;fill:rgb(100%,0.392157%,0.392157%);fill-opacity:1;" d="M 1.121094 14 C 1.121094 6.886719 6.886719 1.121094 14 1.121094 C 21.113281 1.121094 26.878906 6.886719 26.878906 14 C 26.878906 21.113281 21.113281 26.878906 14 26.878906 C 6.886719 26.878906 1.121094 21.113281 1.121094 14 Z M 14 26.320312 C 20.804688 26.320312 26.320312 20.804688 26.320312 14 C 26.320312 7.195312 20.804688 1.679688 14 1.679688 C 7.195312 1.679688 1.679688 7.195312 1.679688 14 C 1.679688 20.804688 7.195312 26.320312 14 26.320312 Z M 14 26.320312 "/>
<path style=" stroke:none;fill-rule:nonzero;fill:rgb(100%,100%,100%);fill-opacity:1;" d="M 26.484375 14 C 26.484375 7.105469 20.894531 1.515625 14 1.515625 C 7.105469 1.515625 1.515625 7.105469 1.515625 14 C 1.515625 20.894531 7.105469 26.484375 14 26.484375 C 20.894531 26.484375 26.484375 20.894531 26.484375 14 Z M 26.484375 14 "/>
<path style=" stroke:none;fill-rule:nonzero;fill:rgb(100%,0%,0%);fill-opacity:1;" d="M 15.460938 14 L 19.105469 9.765625 C 19.503906 9.300781 19.453125 8.605469 18.992188 8.203125 C 18.527344 7.804688 17.832031 7.855469 17.4375 8.320312 L 14 12.308594 L 10.570312 8.324219 C 10.171875 7.863281 9.472656 7.8125 9.007812 8.210938 C 8.546875 8.605469 8.496094 9.304688 8.894531 9.769531 L 12.539062 14 L 8.894531 18.234375 C 8.496094 18.699219 8.546875 19.394531 9.007812 19.796875 C 9.214844 19.976562 9.472656 20.0625 9.726562 20.0625 C 10.039062 20.0625 10.347656 19.933594 10.5625 19.679688 L 13.996094 15.695312 L 17.425781 19.679688 C 17.644531 19.933594 17.953125 20.0625 18.261719 20.0625 C 18.519531 20.0625 18.773438 19.976562 18.980469 19.796875 C 19.445312 19.398438 19.492188 18.699219 19.097656 18.234375 Z M 15.460938 14 "/>
</g>
</svg>
